HIERARCHY
ROOT SpineBase
{
  OFFSET 0.000000 0.000000 0.000000
  CHANNELS 6 Xposition Yposition Zposition Zrotation Xrotation Yrotation
  JOINT SpineMid
  {
    OFFSET 0.000000 32.657420 0.000000
    CHANNELS 3 Zrotation Xrotation Yrotation
    JOINT SpineShoulder
    {
      OFFSET -0.003867 24.234867 -0.866496
      CHANNELS 3 Zrotation Xrotation Yrotation
      JOINT Neck
      {
        OFFSET 0.021386 8.017723 -0.635904
        CHANNELS 3 Zrotation Xrotation Yrotation
        JOINT Head
        {
          OFFSET 3.015332 13.089642 4.161686
          CHANNELS 3 Zrotation Xrotation Yrotation
          End Site
          {
            OFFSET 0 0 0
          }
        }
      }
      JOINT ShoulderLeft
      {
        OFFSET -10.750683 -2.973568 -10.723264
        CHANNELS 3 Zrotation Xrotation Yrotation
        JOINT ElbowLeft
        {
          OFFSET -7.440466 -24.250794 -6.507933
          CHANNELS 3 Zrotation Xrotation Yrotation
          JOINT WristLeft
          {
            OFFSET 0.394171 -22.759237 -6.171970
            CHANNELS 3 Zrotation Xrotation Yrotation
            JOINT HandLeft
            {
              OFFSET 1.460124 -8.499739 0.065842
              CHANNELS 3 Zrotation Xrotation Yrotation
              JOINT HandTipLeft
              {
                OFFSET -0.146439 -8.019895 -0.871175
                CHANNELS 3 Zrotation Xrotation Yrotation
                End Site
                {
                  OFFSET 0 0 0
                }
              }
              JOINT ThumbLeft
              {
                OFFSET -3.691562 3.282540 -3.027920
                CHANNELS 3 Zrotation Xrotation Yrotation
                End Site
                {
                  OFFSET 0 0 0
                }
              }
            }
          }
        }
      }
      JOINT ShoulderRight
      {
        OFFSET 13.553698 -4.140188 11.656513
        CHANNELS 3 Zrotation Xrotation Yrotation
        JOINT ElbowRight
        {
          OFFSET 3.323502 -24.227908 8.348381
          CHANNELS 3 Zrotation Xrotation Yrotation
          JOINT WristRight
          {
            OFFSET -0.972929 -24.818255 7.656854
            CHANNELS 3 Zrotation Xrotation Yrotation
            JOINT HandRight
            {
              OFFSET 1.378266 -14.108755 3.721195
              CHANNELS 3 Zrotation Xrotation Yrotation
              JOINT HandTipRight
              {
                OFFSET 2.454230 -7.084603 -2.248271
                CHANNELS 3 Zrotation Xrotation Yrotation
                End Site
                {
                  OFFSET 0 0 0
                }
              }
              JOINT ThumbRight
              {
                OFFSET 3.838902 -2.284712 -5.512451
                CHANNELS 3 Zrotation Xrotation Yrotation
                End Site
                {
                  OFFSET 0 0 0
                }
              }
            }
          }
        }
      }
    }
  }
  JOINT HipLeft
  {
    OFFSET -5.045934 1.987949 -7.711411
    CHANNELS 3 Zrotation Xrotation Yrotation
    JOINT KneeLeft
    {
      OFFSET -9.988505 -34.737207 -4.210622
      CHANNELS 3 Zrotation Xrotation Yrotation
      JOINT AnkleLeft
      {
        OFFSET -8.639890 -35.979604 1.542842
        CHANNELS 3 Zrotation Xrotation Yrotation
        JOINT FootLeft
        {
          OFFSET 1.207431 -6.976740 -8.191736
          CHANNELS 3 Zrotation Xrotation Yrotation
          End Site
          {
            OFFSET 0 0 0
          }
        }
      }
    }
  }
  JOINT HipRight
  {
    OFFSET 5.842140 -0.081105 0.533218
    CHANNELS 3 Zrotation Xrotation Yrotation
    JOINT KneeRight
    {
      OFFSET -5.837877 -37.296709 3.114243
      CHANNELS 3 Zrotation Xrotation Yrotation
      JOINT AnkleRight
      {
        OFFSET -6.606608 -36.218311 12.538251
        CHANNELS 3 Zrotation Xrotation Yrotation
        JOINT FootRight
        {
          OFFSET 3.244531 -7.576445 -5.607202
          CHANNELS 3 Zrotation Xrotation Yrotation
          End Site
          {
            OFFSET 0 0 0
          }
        }
      }
    }
  }
}
MOTION
Frames: 14
Frame Time: 0.033333
-26.474629 83.525777 343.952971 -4.899685 3.696502 -40.722447 -0.583210 -0.551935 40.646851 -0.183112 -0.042481 -0.282140 -16.790583 -2.519635 6.160929 0.000000 0.000000 0.000000 -15.944369 -24.638746 7.487833 13.950580 26.869763 -8.163105 -13.317652 -49.957670 -24.558642 9.325549 25.923682 5.611372 0.000000 0.000000 0.000000 0.000000 0.000000 0.000000 9.479462 -9.986492 1.374987 12.026069 62.060585 -9.464796 -30.547093 36.046613 -12.743676 7.418504 -68.870104 4.216721 0.000000 0.000000 0.000000 0.000000 0.000000 0.000000 0.290826 1.972612 39.963972 -5.724762 -3.087204 -0.334025 -2.327899 -8.748588 13.470394 0.000000 0.000000 0.000000 8.510673 3.026022 41.016608 -10.181800 4.862688 -3.270607 11.510565 -0.241467 2.135517 0.000000 0.000000 0.000000
-26.240039 83.501569 344.167588 -5.458453 3.855775 -41.074140 -0.549267 -0.422653 41.015211 -0.126522 -0.012149 -0.294998 -16.400929 -2.172472 6.087635 0.000000 0.000000 0.000000 -13.246269 -27.265106 7.832712 10.532639 27.986192 -7.341904 2.469833 -50.322343 -16.876563 3.341206 31.570277 5.842159 0.000000 0.000000 0.000000 0.000000 0.000000 0.000000 9.870043 -10.262130 1.442433 12.064158 62.120254 -9.484521 -27.701335 29.504896 -11.843853 -3.906795 -61.951237 -3.001380 0.000000 0.000000 0.000000 0.000000 0.000000 0.000000 0.332952 2.546251 40.240101 -5.727066 -3.758051 -0.260973 -2.720833 -8.924631 14.083656 0.000000 0.000000 0.000000 8.931408 3.251193 41.358821 -10.117678 5.164627 -3.316893 5.352676 -8.617156 3.439879 0.000000 0.000000 0.000000
-26.106001 83.513962 344.272597 -6.018335 4.111084 -41.083843 -0.551291 -0.349996 41.042525 -0.087511 0.007900 -0.313155 -16.227552 -2.187513 6.091334 0.000000 0.000000 0.000000 -10.351813 -24.667087 7.359208 0.300994 16.763599 -2.953335 14.018006 -40.575461 -15.049238 1.802450 34.851262 4.461222 0.000000 0.000000 0.000000 0.000000 0.000000 0.000000 10.343196 -10.589547 1.527815 12.118870 62.164808 -9.504642 -23.839406 22.463768 -9.755151 -11.714083 -52.598287 -5.523043 0.000000 0.000000 0.000000 0.000000 0.000000 0.000000 0.701487 3.071943 40.190056 -5.912018 -4.395824 -0.177422 -0.051347 -5.702094 11.430215 0.000000 0.000000 0.000000 9.448875 3.275369 41.382608 -10.002171 5.453919 -3.345641 0.668397 -14.565361 4.040823 0.000000 0.000000 0.000000
-26.100001 83.121726 344.307468 -6.331427 4.388689 -41.030320 -0.494496 -0.217222 41.017042 -0.032489 0.036650 -0.314208 -17.994950 -2.336644 6.429841 0.000000 0.000000 0.000000 -8.354328 -20.264367 6.395342 -2.899105 7.627039 -2.098966 24.376233 -41.120586 -13.086177 -3.200660 40.687267 3.921844 0.000000 0.000000 0.000000 0.000000 0.000000 0.000000 10.478057 -10.952904 1.586751 12.105206 62.163024 -9.493318 -19.221331 14.501999 -6.801271 -15.106983 -38.048184 -1.898169 0.000000 0.000000 0.000000 0.000000 0.000000 0.000000 0.910449 3.466884 40.053255 -6.106340 -5.185435 -0.067757 -2.778231 -8.292783 14.386768 0.000000 0.000000 0.000000 9.681797 3.137500 41.339407 -9.787071 5.517194 -3.341066 0.200647 -13.972472 4.697638 0.000000 0.000000 0.000000
-26.050943 82.826224 344.398638 -6.724039 4.569064 -41.373905 -0.562270 -0.218182 41.370864 -0.063854 0.059523 -0.336642 -18.477692 -2.605275 6.620119 0.000000 0.000000 0.000000 -7.120164 -13.245299 4.987608 0.296718 -3.700915 -3.265251 36.721729 -38.580620 -7.554869 -8.521620 40.466227 1.385706 0.000000 0.000000 0.000000 0.000000 0.000000 0.000000 10.962023 -11.188975 1.672467 12.111133 62.158850 -9.488288 -16.095479 9.855485 -4.555543 -16.806854 -32.808184 -1.898716 0.000000 0.000000 0.000000 0.000000 0.000000 0.000000 1.120571 3.966233 40.329685 -6.176137 -5.828540 0.037381 -2.450527 -7.505330 13.999909 0.000000 0.000000 0.000000 9.578639 3.375031 41.619683 -9.467935 5.115600 -3.308073 1.472801 -12.876384 4.389207 0.000000 0.000000 0.000000
-25.936963 82.647686 344.568286 -6.987386 4.640330 -42.047253 -0.590766 -0.214894 42.050247 -0.134023 0.061878 -0.357536 -19.102160 -3.114141 6.853806 0.000000 0.000000 0.000000 -6.622891 -4.468798 3.357457 16.443967 -16.065974 -4.179260 45.091319 -33.591876 2.211643 -17.502161 43.314964 -1.779547 0.000000 0.000000 0.000000 0.000000 0.000000 0.000000 11.316655 -11.278967 1.725848 12.103077 62.154584 -9.478992 -14.891555 6.847360 -3.821247 -15.124450 -24.842946 2.328712 0.000000 0.000000 0.000000 0.000000 0.000000 0.000000 1.144596 4.401971 40.945368 -6.104606 -6.365334 0.142044 0.334315 -3.954196 10.901653 0.000000 0.000000 0.000000 8.953589 3.839692 42.166564 -9.024566 4.240916 -3.239683 8.950454 -3.772983 3.089528 0.000000 0.000000 0.000000
-25.823264 82.559450 344.764959 -7.223805 4.713809 -42.735350 -0.687083 -0.208637 42.744100 -0.198689 0.076047 -0.378196 -19.236201 -4.315288 6.949702 0.000000 0.000000 0.000000 -6.580078 3.592315 1.984698 42.263464 -21.398188 -0.220314 43.660610 -15.485526 8.178910 -24.693021 33.474591 -6.546178 0.000000 0.000000 0.000000 0.000000 0.000000 0.000000 11.688576 -11.429521 1.790336 12.091806 62.150571 -9.468413 -16.184026 10.262534 -4.580635 -10.514886 -24.005284 6.163582 0.000000 0.000000 0.000000 0.000000 0.000000 0.000000 1.206309 4.785265 41.587190 -5.977143 -6.748061 0.240392 5.317369 1.196323 5.419467 0.000000 0.000000 0.000000 8.204045 4.402428 42.719896 -8.616945 3.139263 -3.161719 13.307287 3.488048 2.421959 0.000000 0.000000 0.000000
-25.659738 82.502817 344.994288 -7.381160 4.739313 -43.259534 -0.737253 -0.174207 43.274680 -0.230370 0.074699 -0.389893 -19.412643 -5.188410 7.019561 0.000000 0.000000 0.000000 -8.077640 10.301665 1.326232 65.620000 -17.821956 4.028215 29.876804 4.227617 8.809659 -21.579245 13.336524 -9.938927 0.000000 0.000000 0.000000 0.000000 0.000000 0.000000 11.886368 -11.511756 1.823369 12.086579 62.150831 -9.459537 -13.417703 6.793106 -2.457905 -12.159724 -17.079636 6.641089 0.000000 0.000000 0.000000 0.000000 0.000000 0.000000 1.186655 5.123426 42.065413 -5.870029 -7.052406 0.321890 12.016343 6.532890 -1.768642 0.000000 0.000000 0.000000 7.323275 4.909738 43.113596 -8.206019 1.970595 -3.079095 17.035968 10.737409 1.764564 0.000000 0.000000 0.000000
-25.430249 82.487167 345.229598 -7.489191 4.757715 -43.391238 -0.747724 -0.107399 43.415685 -0.220556 0.068290 -0.392472 -19.225580 -6.043140 6.972461 0.000000 0.000000 0.000000 -9.408363 15.090478 1.026393 75.590542 -11.205020 5.168880 12.089921 19.096962 8.048655 -9.608651 -17.143711 -1.440237 0.000000 0.000000 0.000000 0.000000 0.000000 0.000000 11.940491 -11.577989 1.836548 12.080728 62.150336 -9.450407 -9.357736 1.750346 0.729951 -16.513612 -10.683399 4.883021 0.000000 0.000000 0.000000 0.000000 0.000000 0.000000 1.105394 5.359271 42.159459 -5.717581 -7.281016 0.382433 22.062967 11.983258 -12.319330 0.000000 0.000000 0.000000 6.490358 5.217735 43.136850 -7.738474 0.973496 -2.988404 20.713294 16.326337 0.410973 0.000000 0.000000 0.000000
-25.159394 82.488747 345.450033 -7.533380 4.762459 -43.220512 -0.721540 -0.026542 43.254471 -0.175078 0.049321 -0.387046 -18.927757 -6.790794 6.880529 0.000000 0.000000 0.000000 -11.466638 16.617798 1.469434 76.765000 -6.109067 3.776003 -7.355587 25.219850 9.714340 9.886714 -30.867204 8.018479 0.000000 0.000000 0.000000 0.000000 0.000000 0.000000 11.858032 -11.604546 1.827606 12.075227 62.149555 -9.442538 -3.897934 -4.816149 5.146883 -23.884727 -5.337780 1.475208 0.000000 0.000000 0.000000 0.000000 0.000000 0.000000 0.947200 5.485637 41.959256 -5.494765 -7.429532 0.425349 27.252114 13.763043 -17.790589 0.000000 0.000000 0.000000 5.726124 5.344740 42.875650 -7.264187 0.122291 -2.895681 24.622907 22.661595 -1.169242 0.000000 0.000000 0.000000
-24.890779 82.527759 345.614749 -7.598995 4.765809 -42.710242 -0.734062 -0.019988 42.744977 -0.152523 0.025327 -0.389192 -18.657638 -7.107641 6.850850 0.000000 0.000000 0.000000 -13.408825 14.522819 2.390766 71.853310 -2.152691 0.236716 -15.860230 18.824472 11.495409 14.009562 -30.505455 6.908976 0.000000 0.000000 0.000000 0.000000 0.000000 0.000000 11.904943 -11.589761 1.829782 12.070863 62.148168 -9.435946 -8.277578 0.435773 1.593529 -19.623529 -11.731736 2.582592 0.000000 0.000000 0.000000 0.000000 0.000000 0.000000 0.775964 5.607119 41.421228 -5.280601 -7.603258 0.459009 26.366873 13.446424 -16.915871 0.000000 0.000000 0.000000 5.271538 5.306278 42.308955 -6.853431 -0.380147 -2.817570 25.354010 24.153066 -1.485846 0.000000 0.000000 0.000000
-24.662759 82.504921 345.699548 -7.712895 4.775337 -41.766708 -0.720991 -0.034097 41.800602 -0.124548 -0.000866 -0.392760 -18.534438 -7.306931 6.875923 0.000000 0.000000 0.000000 -15.353914 8.114460 3.682090 61.458964 2.690767 -5.362042 -13.575532 8.698085 10.565725 10.421095 -24.203270 1.652738 0.000000 0.000000 0.000000 0.000000 0.000000 0.000000 11.994670 -11.541002 1.833250 12.067703 62.146501 -9.431137 -8.275383 0.436356 1.595726 -19.659721 -11.740030 2.566954 0.000000 0.000000 0.000000 0.000000 0.000000 0.000000 0.633977 5.790085 40.442393 -5.083251 -7.956968 0.515109 27.676850 14.053822 -18.288107 0.000000 0.000000 0.000000 5.167539 5.100455 41.343881 -6.572079 -0.521962 -2.782052 22.571104 21.347008 0.019831 0.000000 0.000000 0.000000
-24.528900 82.434768 345.688487 -7.932487 4.811969 -40.439399 -0.661896 -0.090540 40.470811 -0.088102 -0.040018 -0.400530 -18.423875 -7.227563 6.951467 0.000000 0.000000 0.000000 -15.640846 6.387710 4.028741 42.033018 -3.210610 -2.207200 -3.987659 1.773503 6.110007 6.328114 -12.359210 -1.370320 0.000000 0.000000 0.000000 0.000000 0.000000 0.000000 12.178702 -11.438037 1.841738 12.066402 62.144770 -9.429134 -8.274680 0.437165 1.596435 -19.671064 -11.752807 2.557040 0.000000 0.000000 0.000000 0.000000 0.000000 0.000000 0.685980 5.987894 39.095963 -4.959606 -8.302108 0.560554 24.672317 13.320002 -15.177981 0.000000 0.000000 0.000000 5.567828 4.725329 40.047249 -6.464946 -0.200395 -2.793724 21.182413 18.978701 0.567258 0.000000 0.000000 0.000000
-24.528623 82.039347 345.579628 -8.217216 4.831942 -39.156437 -0.528909 -0.193953 39.181075 -0.032278 -0.080309 -0.407273 -18.665109 -6.775831 7.139486 0.000000 0.000000 0.000000 -16.223255 3.827917 4.554345 34.329410 -2.775993 -2.780518 -0.439332 -5.992357 3.193387 4.847472 -3.754820 -1.283104 0.000000 0.000000 0.000000 0.000000 0.000000 0.000000 12.372958 -11.235891 1.836903 12.065292 62.144577 -9.427430 -8.273835 0.436997 1.597266 -19.685461 -11.751175 2.553246 0.000000 0.000000 0.000000 0.000000 0.000000 0.000000 0.852422 6.225394 37.803886 -4.888391 -8.649215 0.606949 16.397456 10.166854 -6.587504 0.000000 0.000000 0.000000 5.953360 4.335570 38.795546 -6.238911 0.118968 -2.774794 19.078381 15.816564 1.348465 0.000000 0.000000 0.000000
